<svg width="32" height="32" viewBox="0 0 48 49" fill="none" xmlns="http://www.w3.org/2000/svg">
<g clip-path="url(#clip0_3_233)">
<mask id="mask0_3_233" style="mask-type:alpha" maskUnits="userSpaceOnUse" x="0" y="0" width="48" height="49">
<path d="M48 24.9829C48 11.728 37.2548 0.98288 24 0.98288C10.7452 0.98288 0 11.728 0 24.9829C0 38.2377 10.7452 48.9829 24 48.9829C37.2548 48.9829 48 38.2377 48 24.9829Z" fill="white"/>
</mask>
<g mask="url(#mask0_3_233)">
<path d="M48 0.98288H0V48.9829H48V0.98288Z" fill="#45AFEA"/>
<path d="M8.46198 26.8986L33.3307 47.0368C36.7643 49.8173 41.8019 49.2879 44.5824 45.8542L64.7206 20.9856C67.5012 17.5519 66.9717 12.5143 63.538 9.73383L38.6694 -10.4044C35.2357 -13.1849 30.1981 -12.6555 27.4176 -9.22181L7.27938 15.6469C4.49886 19.0805 5.02834 24.1181 8.46198 26.8986Z" fill="#064061"/>
<path d="M25.8407 20.3407C28.2659 22.0748 30.8998 22.492 33.7422 21.5922" stroke="white" stroke-width="2.22222" stroke-linecap="round"/>
<path d="M22.0658 14.343C22.181 13.6157 21.8322 12.9561 21.2867 12.8697C20.7412 12.7833 20.2056 13.3028 20.0904 14.0302C19.9752 14.7575 20.324 15.4171 20.8695 15.5035C21.415 15.5899 21.9506 15.0703 22.0658 14.343Z" fill="white"/>
<path d="M40.5026 17.2631C40.6178 16.5358 40.269 15.8762 39.7235 15.7898C39.178 15.7034 38.6424 16.223 38.5272 16.9503C38.412 17.6776 38.7609 18.3372 39.3064 18.4236C39.8518 18.51 40.3874 17.9905 40.5026 17.2631Z" fill="white"/>
</g>
</g>
<defs>
<clipPath id="clip0_3_233">
<rect width="48" height="48" fill="white" transform="translate(0 0.98288)"/>
</clipPath>
</defs>
</svg>
