<svg width="60" height="61" viewBox="0 0 60 61" fill="none" xmlns="http://www.w3.org/2000/svg">
<circle cx="30" cy="30.9828" r="30" fill="white" fill-opacity="0.1"/>
<path d="M39.7333 25.5428V32.4095C39.7333 36.5162 37.3867 38.2761 33.8667 38.2761H22.1467C21.5467 38.2761 20.9733 38.2229 20.44 38.1029C20.1067 38.0496 19.7867 37.9562 19.4933 37.8496C17.4933 37.1029 16.28 35.3695 16.28 32.4095V25.5428C16.28 21.4362 18.6267 19.6762 22.1467 19.6762H33.8667C36.8533 19.6762 39 20.9429 39.5733 23.8362C39.6667 24.3695 39.7333 24.9162 39.7333 25.5428Z" stroke="white" stroke-width="1.5" stroke-miterlimit="10" stroke-linecap="round" stroke-linejoin="round"/>
<path d="M43.7348 29.543V36.4097C43.7348 40.5164 41.3881 42.2763 37.8681 42.2763H26.1481C25.1615 42.2763 24.2681 42.143 23.4948 41.8497C21.9081 41.263 20.8281 40.0497 20.4415 38.103C20.9748 38.223 21.5481 38.2763 22.1481 38.2763H33.8681C37.3881 38.2763 39.7348 36.5164 39.7348 32.4097V25.543C39.7348 24.9163 39.6815 24.3564 39.5748 23.8364C42.1081 24.3697 43.7348 26.1563 43.7348 29.543Z" stroke="white" stroke-width="1.5" stroke-miterlimit="10" stroke-linecap="round" stroke-linejoin="round"/>
<path d="M27.9979 32.5027C29.942 32.5027 31.5179 30.9267 31.5179 28.9827C31.5179 27.0387 29.942 25.4627 27.9979 25.4627C26.0539 25.4627 24.4779 27.0387 24.4779 28.9827C24.4779 30.9267 26.0539 32.5027 27.9979 32.5027Z" stroke="white" stroke-width="1.5" stroke-miterlimit="10" stroke-linecap="round" stroke-linejoin="round"/>
<path d="M20.3734 26.0495V31.9162" stroke="white" stroke-width="1.5" stroke-miterlimit="10" stroke-linecap="round" stroke-linejoin="round"/>
<path d="M35.629 26.0499V31.9166" stroke="white" stroke-width="1.5" stroke-miterlimit="10" stroke-linecap="round" stroke-linejoin="round"/>
</svg>
