<svg width="30" height="31" viewBox="0 0 30 31" fill="none" xmlns="http://www.w3.org/2000/svg">
<g filter="url(#filter0_d_3_134)">
<path d="M15 5.56H25" stroke="#4EB7F2" stroke-width="1.5" stroke-miterlimit="10" stroke-linecap="round" stroke-linejoin="round"/>
<path d="M17.22 2H22.78C24.56 2 25 2.44 25 4.2V8.31C25 10.07 24.56 10.51 22.78 10.51H17.22C15.44 10.51 15 10.07 15 8.31V4.2C15 2.44 15.44 2 17.22 2Z" stroke="#4EB7F2" stroke-width="1.5" stroke-linecap="round" stroke-linejoin="round"/>
<path d="M5 17.06H15" stroke="#4EB7F2" stroke-width="1.5" stroke-miterlimit="10" stroke-linecap="round" stroke-linejoin="round"/>
<path d="M7.22 13.5H12.78C14.56 13.5 15 13.94 15 15.7V19.81C15 21.57 14.56 22.01 12.78 22.01H7.22C5.44 22.01 5 21.57 5 19.81V15.7C5 13.94 5.44 13.5 7.22 13.5Z" stroke="#4EB7F2" stroke-width="1.5" stroke-linecap="round" stroke-linejoin="round"/>
<path d="M25 15C25 18.87 21.87 22 18 22L19.05 20.25" stroke="#4EB7F2" stroke-width="1.5" stroke-linecap="round" stroke-linejoin="round"/>
<path d="M5 9C5 5.13 8.13 2 12 2L10.95 3.75" stroke="#4EB7F2" stroke-width="1.5" stroke-linecap="round" stroke-linejoin="round"/>
</g>
<defs>
<filter id="filter0_d_3_134" x="0.25" y="1.25" width="29.5" height="29.51" filterUnits="userSpaceOnUse" color-interpolation-filters="sRGB">
<feFlood flood-opacity="0" result="BackgroundImageFix"/>
<feColorMatrix in="SourceAlpha" type="matrix" values="0 0 0 0 0 0 0 0 0 0 0 0 0 0 0 0 0 0 127 0" result="hardAlpha"/>
<feOffset dy="4"/>
<feGaussianBlur stdDeviation="2"/>
<feComposite in2="hardAlpha" operator="out"/>
<feColorMatrix type="matrix" values="0 0 0 0 0 0 0 0 0 0 0 0 0 0 0 0 0 0 0.25 0"/>
<feBlend mode="normal" in2="BackgroundImageFix" result="effect1_dropShadow_3_134"/>
<feBlend mode="normal" in="SourceGraphic" in2="effect1_dropShadow_3_134" result="shape"/>
</filter>
</defs>
</svg>
